<svg width="94" height="19" fill="none" xmlns="http://www.w3.org/2000/svg"><path d="M.077.65c.775 0 1.225.075 1.225 1v15.225c0 .9-.45 1-1.225 1V18h5.275c1.925 0 7.175-.125 7.175-5.275 0-3.8-3.8-4.7-6.4-4.525 1.675-.4 4.55-1.55 4.55-4.25 0-2.35-2.1-3.45-5.5-3.45h-5.1v.15Zm5.2.2c1.475 0 4.175.4 4.175 3.15 0 1.925-1.6 3.475-5.025 4.3l.075.45c.5-.1 1.025-.15 1.55-.15 2.625 0 5.25 1.3 5.25 4.175 0 4.325-3.225 4.875-6.175 4.875-2.3 0-2.775-.375-2.775-.775V1.65c0-.55.85-.8 2.925-.8Zm13.292 17.5c3.275 0 5-2.125 5.925-4.425v.025c0 3.025.9 4.4 2.475 4.4 1.55 0 2.05-1.225 2.05-2h-.325c0 1.15-.8 1.65-1.625 1.65-.65 0-1.525-.275-1.525-3.575V5.15c0-2.15-1.225-5-5.475-5-2.15 0-4.675.925-5.625 3.15l1.1.35c.775-2.2 2.85-3.15 4.6-3.15 3.95 0 4.35 2.9 4.35 5.075V6.9c-3.425 0-10.925.575-10.925 6.7 0 2.925 2.125 4.75 5 4.75Zm5.925-11.225v1.9c0 1.9-.325 8.975-5.925 8.975-2.25 0-3.95-1.375-3.95-4.4 0-5.475 6.4-6.475 9.875-6.475ZM29.636.5v.125c.775 0 1.225.1 1.225 1v15.25c0 .9-.45 1-1.225 1V18h5.1c6.45 0 9.15-4.275 9.15-9.55 0-5.6-2.925-8.3-6.7-8.3-2.475 0-4.475 1.55-5.275 3.325V1.55c0-.575-.475-1.05-1.05-1.05h-1.225Zm2.275 4.75c0-2.1 2.175-4.75 5.175-4.75 3.575 0 5.575 2.575 5.575 7.95 0 7.775-4.25 9.2-7.825 9.2-2.075 0-2.925-.25-2.925-.775V5.25ZM45.023 18h3.5v-.125c-.775 0-1.225-.1-1.225-1V4.45c0-.6-.475-1.05-1.05-1.05h-1.225v.125c.775 0 1.225.075 1.225 1v12.35c0 .9-.45 1-1.225 1V18Zm.775-16.625c.125.525.675.85 1.2.725a.99.99 0 0 0 .725-1.2.976.976 0 0 0-1.175-.725.986.986 0 0 0-.75 1.2ZM50.028 18h3.5v-.125c-.775 0-1.225-.1-1.225-1V4.45c0-.6-.475-1.05-1.05-1.05h-1.225v.125c.775 0 1.225.075 1.225 1v12.35c0 .9-.45 1-1.225 1V18Zm.775-16.625c.125.525.675.85 1.2.725a.99.99 0 0 0 .725-1.2.976.976 0 0 0-1.175-.725.986.986 0 0 0-.75 1.2Zm5.48.25 4.875 8.05-4.6 7.425c-.425.625-.775.775-1.475.775V18h2.85v-.125c-.775 0-1.325-.2-.825-1l9.425-15.25c.5-.8.825-1 1.625-1V.5h-2.85v.125c.7 0 1.2.175.925.8l-4.45 7.225-4.275-7.025c-.45-.75.1-1 .875-1V.5h-3.725v.125c.775 0 1.125.2 1.625 1ZM72.45 18.35c3.275 0 5-2.125 5.925-4.425v.025c0 3.025.9 4.4 2.475 4.4 1.55 0 2.05-1.225 2.05-2h-.325c0 1.15-.8 1.65-1.625 1.65-.65 0-1.525-.275-1.525-3.575V5.15c0-2.15-1.225-5-5.475-5-2.15 0-4.675.925-5.625 3.15l1.1.35c.775-2.2 2.85-3.15 4.6-3.15 3.95 0 4.35 2.9 4.35 5.075V6.9c-3.425 0-10.925.575-10.925 6.7 0 2.925 2.125 4.75 5 4.75Zm5.925-11.225v1.9c0 1.9-.325 8.975-5.925 8.975-2.25 0-3.95-1.375-3.95-4.4 0-5.475 6.4-6.475 9.875-6.475ZM82.718.5v8h.125c0-7.65 0-7.65 4.8-7.65v16.025c0 .9-.45 1-1.225 1V18h3.5v-.125c-.8 0-1.225-.1-1.225-1V.85c4.775 0 4.775 0 4.775 7.65h.125v-8H82.718Z" fill="#C9AC8C"/></svg>